<svg width="60" height="60" viewBox="0 0 60 60" fill="none" xmlns="http://www.w3.org/2000/svg">
<path d="M30 55C26.875 55 23.9479 54.4167 21.2188 53.25C18.4896 52.0833 16.1042 50.4792 14.0625 48.4375C12.0208 46.3958 10.4167 44.0104 9.25 41.2813C8.08333 38.5521 7.5 35.625 7.5 32.5H11.25C11.25 37.7083 13.0729 42.1354 16.7188 45.7813C20.3646 49.4271 24.7917 51.25 30 51.25C35.2083 51.25 39.6354 49.4271 43.2812 45.7813C46.9271 42.1354 48.75 37.7083 48.75 32.5C48.75 27.2917 46.9792 22.8646 43.4375 19.2188C39.8958 15.5729 35.5208 13.75 30.3125 13.75H28.875L33.4375 18.3125L30.875 20.9375L21.6875 11.75L30.875 2.5625L33.4375 5.125L28.5625 10H30C33.125 10 36.0521 10.5833 38.7812 11.75C41.5104 12.9167 43.8958 14.5208 45.9375 16.5625C47.9792 18.6042 49.5833 20.9896 50.75 23.7188C51.9167 26.4479 52.5 29.375 52.5 32.5C52.5 35.625 51.9167 38.5521 50.75 41.2813C49.5833 44.0104 47.9792 46.3958 45.9375 48.4375C43.8958 50.4792 41.5104 52.0833 38.7812 53.25C36.0521 54.4167 33.125 55 30 55Z" fill="white"/>
</svg>
